<svg width="14" height="15" viewBox="0 0 14 15" fill="none" xmlns="http://www.w3.org/2000/svg">
<path fill-rule="evenodd" clip-rule="evenodd" d="M6.99992 13.6671C3.84228 13.6671 1.27264 11.0981 1.27264 7.93977C1.27264 4.78149 3.84228 2.21249 6.99992 2.21249C10.1576 2.21249 12.7272 4.78149 12.7272 7.93977C12.7272 11.0981 10.1576 13.6671 6.99992 13.6671ZM7 0.940308C3.14045 0.940308 0 4.08076 0 7.94031C0 11.8005 3.14045 14.9403 7 14.9403C10.8595 14.9403 14 11.8005 14 7.94031C14 4.08076 10.8595 0.940308 7 0.940308Z" fill="black" fill-opacity="0.9"/>
<path fill-rule="evenodd" clip-rule="evenodd" d="M8.27258 6.03118H5.35421L6.62694 4.75846L5.72712 3.85864L2.91821 6.66754L5.72712 9.47644L6.62694 8.57662L5.35421 7.3039H8.27258C8.97449 7.3039 9.5453 7.87535 9.5453 8.57662C9.5453 9.27853 8.97449 9.84934 8.27258 9.84934H7.63621V11.1221H8.27258C9.67639 11.1221 10.818 9.98044 10.818 8.57662C10.818 7.17281 9.67639 6.03118 8.27258 6.03118Z" fill="black" fill-opacity="0.9"/>
</svg>
